<svg id="visual" viewBox="0 0 1920 1080" width="1920" height="1080" xmlns="http://www.w3.org/2000/svg" xmlns:xlink="http://www.w3.org/1999/xlink" version="1.1">
  <rect x="0" y="0" width="1920" height="1080" fill="#f8f9fa" />
  <path d="M0 271L45.7 267.2C91.3 263.3 182.7 255.7 274.2 283.3C365.7 311 457.3 374 548.8 391.8C640.3 409.7 731.7 382.3 823 378.5C914.3 374.7 1005.7 394.3 1097 389C1188.3 383.7 1279.7 353.3 1371.2 331.3C1462.7 309.3 1554.3 295.7 1645.8 301C1737.3 306.3 1828.7 330.7 1874.3 342.8L1920 355L1920 0L1874.3 0C1828.7 0 1737.3 0 1645.8 0C1554.3 0 1462.7 0 1371.2 0C1279.7 0 1188.3 0 1097 0C1005.7 0 914.3 0 823 0C731.7 0 640.3 0 548.8 0C457.3 0 365.7 0 274.2 0C182.7 0 91.3 0 45.7 0L0 0Z" fill="#00aaff" />
  <path d="M0 222L45.7 220.5C91.3 219 182.7 216 274.2 212.5C365.7 209 457.3 205 548.8 213.8C640.3 222.7 731.7 244.3 823 243.8C914.3 243.3 1005.7 220.7 1097 211.7C1188.3 202.7 1279.7 207.3 1371.2 205.7C1462.7 204 1554.3 196 1645.8 202C1737.3 208 1828.7 228 1874.3 238L1920 248L1920 0L1874.3 0C1828.7 0 1737.3 0 1645.8 0C1554.3 0 1462.7 0 1371.2 0C1279.7 0 1188.3 0 1097 0C1005.7 0 914.3 0 823 0C731.7 0 640.3 0 548.8 0C457.3 0 365.7 0 274.2 0C182.7 0 91.3 0 45.7 0L0 0Z" fill="#0099e6" />
  <path d="M0 200L45.7 196.5C91.3 193 182.7 186 274.2 185.7C365.7 185.3 457.3 191.7 548.8 194.2C640.3 196.7 731.7 195.3 823 177.5C914.3 159.7 1005.7 125.3 1097 116.2C1188.3 107 1279.7 123 1371.2 123.7C1462.7 124.3 1554.3 109.7 1645.8 109C1737.3 108.3 1828.7 121.7 1874.3 128.3L1920 135L1920 0L1874.3 0C1828.7 0 1737.3 0 1645.8 0C1554.3 0 1462.7 0 1371.2 0C1279.7 0 1188.3 0 1097 0C1005.7 0 914.3 0 823 0C731.7 0 640.3 0 548.8 0C457.3 0 365.7 0 274.2 0C182.7 0 91.3 0 45.7 0L0 0Z" fill="#0089ce" />
  <style xmlns=""></style>
</svg>